<svg width="50" height="51" viewBox="0 0 50 51" fill="none" xmlns="http://www.w3.org/2000/svg">
<rect y="0.586914" width="50" height="50" rx="10" fill="#00456B"/>
<path d="M25.3047 24.1106C23.5354 24.1106 22.0961 22.8648 22.0961 21.3336C22.0961 19.8022 23.5354 18.5564 25.3047 18.5564C27.0739 18.5564 28.5132 19.8022 28.5132 21.3336C28.5132 22.1389 29.1663 22.792 29.9717 22.792C30.777 22.792 31.4301 22.1389 31.4301 21.3336C31.4301 18.661 29.4388 16.4138 26.7631 15.8039V15.0454C26.7631 14.24 26.11 13.5869 25.3047 13.5869C24.4993 13.5869 23.8462 14.24 23.8462 15.0454V15.8039C21.1706 16.4138 19.1792 18.661 19.1792 21.3336C19.1792 24.4731 21.9271 27.0275 25.3047 27.0275C27.0739 27.0275 28.5132 28.2733 28.5132 29.8046C28.5132 31.336 27.0739 32.5818 25.3047 32.5818C23.5354 32.5818 22.0961 31.336 22.0961 29.8046C22.0961 28.9993 21.443 28.3462 20.6377 28.3462C19.8323 28.3462 19.1792 28.9993 19.1792 29.8046C19.1792 32.4772 21.1706 34.7244 23.8462 35.3343V35.9643C23.8462 36.7697 24.4993 37.4228 25.3047 37.4228C26.11 37.4228 26.7631 36.7697 26.7631 35.9643V35.3343C29.4388 34.7244 31.4301 32.4772 31.4301 29.8046C31.4301 26.6649 28.6823 24.1106 25.3047 24.1106Z" fill="white"/>
</svg>
