<svg width="50" height="50" viewBox="0 0 50 50" fill="none" xmlns="http://www.w3.org/2000/svg">
<rect width="50" height="50" rx="10" fill="#6FCF97"/>
<g clip-path="url(#clip0_385_937)">
<path d="M35.4553 24.026L33.2403 18.47C33.0223 17.923 32.4013 17.656 31.8533 17.872C31.5723 17.983 31.3503 18.21 31.2483 18.493L25.3303 34.285L22.6263 11.095C22.5623 10.537 22.0753 10.124 21.5153 10.151C21.1233 10.168 20.7723 10.398 20.6013 10.749L14.1633 24.027H9.85126C9.26226 24.025 8.78326 24.504 8.78126 25.092C8.77826 25.682 9.25626 26.16 9.84826 26.162H14.8243C15.2323 26.163 15.6063 25.932 15.7863 25.562L20.9323 14.972L23.7223 38.91C23.7933 39.496 24.3263 39.911 24.9123 39.841C25.3043 39.794 25.6373 39.531 25.7783 39.162L32.2783 21.826L33.7463 25.49C33.9083 25.895 34.3013 26.161 34.7373 26.16H39.7113C40.2993 26.162 40.7783 25.686 40.7813 25.097C40.7833 24.507 40.3053 24.028 39.7143 24.026H35.4553Z" fill="white"/>
</g>
<defs>
<clipPath id="clip0_385_937">
<rect width="32" height="32" fill="white" transform="translate(8.78125 9)"/>
</clipPath>
</defs>
</svg>
