<svg width="276" height="49" viewBox="0 0 276 49" fill="none" xmlns="http://www.w3.org/2000/svg">
<path d="M12.92 36.336C9.272 36.336 6.296 35.552 3.992 33.984C1.72 32.384 0.584 30.128 0.584 27.216C0.584 26.928 0.616 26.496 0.68 25.92H9.224C9.128 27.136 9.416 28.096 10.088 28.8C10.76 29.504 11.784 29.856 13.16 29.856C14.408 29.856 15.384 29.584 16.088 29.04C16.824 28.496 17.192 27.728 17.192 26.736C17.192 25.712 16.728 24.88 15.8 24.24C14.904 23.6 13.496 22.88 11.576 22.08C9.72 21.312 8.2 20.592 7.016 19.92C5.864 19.216 4.856 18.272 3.992 17.088C3.128 15.904 2.696 14.416 2.696 12.624C2.664 10.416 3.208 8.496 4.328 6.864C5.448 5.232 7 3.984 8.984 3.12C10.968 2.256 13.24 1.824 15.8 1.824C18.104 1.824 20.152 2.192 21.944 2.928C23.736 3.632 25.128 4.672 26.12 6.048C27.112 7.392 27.608 8.992 27.608 10.848C27.608 11.328 27.592 11.68 27.56 11.904H18.824C18.856 11.776 18.872 11.584 18.872 11.328C18.872 10.432 18.552 9.712 17.912 9.168C17.304 8.592 16.456 8.304 15.368 8.304C14.216 8.304 13.272 8.592 12.536 9.168C11.832 9.712 11.48 10.464 11.48 11.424C11.48 12.384 11.928 13.2 12.824 13.872C13.72 14.512 15.112 15.264 17 16.128C18.888 16.992 20.424 17.792 21.608 18.528C22.824 19.264 23.864 20.256 24.728 21.504C25.592 22.72 26.024 24.224 26.024 26.016C26.024 28 25.496 29.776 24.44 31.344C23.384 32.912 21.864 34.144 19.88 35.04C17.896 35.904 15.576 36.336 12.92 36.336ZM42.0014 13.008C43.0254 11.76 44.3054 10.752 45.8414 9.984C47.4094 9.216 49.1374 8.832 51.0254 8.832C53.9054 8.832 56.2254 9.776 57.9854 11.664C59.7774 13.552 60.6734 16.112 60.6734 19.344C60.6734 20.336 60.5774 21.408 60.3854 22.56C59.9054 25.312 58.9614 27.744 57.5534 29.856C56.1454 31.936 54.4494 33.552 52.4654 34.704C50.4814 35.824 48.3854 36.384 46.1774 36.384C44.3214 36.384 42.7534 36 41.4734 35.232C40.1934 34.464 39.2494 33.472 38.6414 32.256L35.7134 48.768H27.5054L34.4654 9.216H42.6734L42.0014 13.008ZM52.0814 22.56C52.1774 22.016 52.2254 21.52 52.2254 21.072C52.2254 19.472 51.7614 18.224 50.8334 17.328C49.9374 16.432 48.7854 15.984 47.3774 15.984C45.7454 15.984 44.2574 16.576 42.9134 17.76C41.5694 18.944 40.7054 20.56 40.3214 22.608C40.2254 23.184 40.1774 23.712 40.1774 24.192C40.1774 25.76 40.6254 26.992 41.5214 27.888C42.4174 28.784 43.5694 29.232 44.9774 29.232C46.6094 29.232 48.0974 28.64 49.4414 27.456C50.8174 26.24 51.6974 24.608 52.0814 22.56ZM63.4815 22.56C63.9615 19.808 64.9055 17.392 66.3135 15.312C67.7215 13.232 69.4175 11.632 71.4015 10.512C73.3855 9.392 75.4815 8.832 77.6895 8.832C79.5775 8.832 81.1615 9.216 82.4415 9.984C83.7215 10.752 84.6495 11.76 85.2255 13.008L85.8975 9.216H94.1055L89.3535 36H81.1455L81.8655 32.208C80.8415 33.456 79.5455 34.464 77.9775 35.232C76.4095 36 74.6815 36.384 72.7935 36.384C70.9055 36.384 69.2255 35.952 67.7535 35.088C66.3135 34.224 65.1935 33.008 64.3935 31.44C63.5935 29.84 63.1935 27.968 63.1935 25.824C63.1935 24.8 63.2895 23.712 63.4815 22.56ZM83.5455 22.608C83.6415 22.032 83.6895 21.504 83.6895 21.024C83.6895 19.456 83.2255 18.224 82.2975 17.328C81.4015 16.432 80.2495 15.984 78.8415 15.984C77.2095 15.984 75.7215 16.576 74.3775 17.76C73.0335 18.912 72.1855 20.512 71.8335 22.56C71.7375 23.136 71.6895 23.664 71.6895 24.144C71.6895 25.712 72.1375 26.96 73.0335 27.888C73.9615 28.784 75.1135 29.232 76.4895 29.232C78.1215 29.232 79.6095 28.64 80.9535 27.456C82.2975 26.272 83.1615 24.656 83.5455 22.608ZM107.714 14.064C108.962 12.464 110.386 11.216 111.986 10.32C113.618 9.392 115.314 8.928 117.074 8.928L115.538 17.616H113.282C111.234 17.616 109.618 18.064 108.434 18.96C107.25 19.824 106.466 21.36 106.082 23.568L103.874 36H95.6656L100.37 9.216H108.578L107.714 14.064ZM134.235 22.656L143.115 36H132.939L126.747 24.816L124.779 36H116.571L122.859 0.48H131.067L127.611 20.064L137.595 9.216H147.723L134.235 22.656Z" fill="#0F4C81"/>
<path d="M176.761 36H168.553L158.521 15.216L154.825 36H146.617L152.569 2.304H160.777L170.809 23.184L174.505 2.304H182.713L176.761 36ZM195.325 36.384C193.021 36.384 190.973 35.92 189.181 34.992C187.389 34.064 185.997 32.752 185.005 31.056C184.045 29.36 183.565 27.392 183.565 25.152C183.565 22.112 184.285 19.344 185.725 16.848C187.165 14.352 189.149 12.4 191.677 10.992C194.205 9.552 197.021 8.832 200.125 8.832C202.429 8.832 204.477 9.312 206.269 10.272C208.093 11.2 209.501 12.512 210.493 14.208C211.485 15.904 211.981 17.872 211.981 20.112C211.981 23.184 211.245 25.968 209.773 28.464C208.333 30.928 206.333 32.864 203.773 34.272C201.245 35.68 198.429 36.384 195.325 36.384ZM196.477 29.328C197.821 29.328 199.021 28.928 200.077 28.128C201.165 27.296 201.997 26.24 202.573 24.96C203.181 23.648 203.485 22.288 203.485 20.88C203.485 19.28 203.053 18.048 202.189 17.184C201.325 16.32 200.237 15.888 198.925 15.888C197.549 15.888 196.333 16.304 195.277 17.136C194.253 17.936 193.453 18.992 192.877 20.304C192.301 21.616 192.013 22.992 192.013 24.432C192.013 26 192.429 27.216 193.261 28.08C194.093 28.912 195.165 29.328 196.477 29.328ZM227.413 28.32L236.629 9.216H245.413L231.157 36H220.981L216.229 9.216H224.965L227.413 28.32ZM245.21 22.56C245.69 19.808 246.634 17.392 248.042 15.312C249.45 13.232 251.146 11.632 253.13 10.512C255.114 9.392 257.21 8.832 259.418 8.832C261.306 8.832 262.89 9.216 264.17 9.984C265.45 10.752 266.378 11.76 266.954 13.008L267.626 9.216H275.834L271.082 36H262.874L263.594 32.208C262.57 33.456 261.274 34.464 259.706 35.232C258.138 36 256.41 36.384 254.522 36.384C252.634 36.384 250.954 35.952 249.482 35.088C248.042 34.224 246.922 33.008 246.122 31.44C245.322 29.84 244.922 27.968 244.922 25.824C244.922 24.8 245.018 23.712 245.21 22.56ZM265.274 22.608C265.37 22.032 265.418 21.504 265.418 21.024C265.418 19.456 264.954 18.224 264.026 17.328C263.13 16.432 261.978 15.984 260.57 15.984C258.938 15.984 257.45 16.576 256.106 17.76C254.762 18.912 253.914 20.512 253.562 22.56C253.466 23.136 253.418 23.664 253.418 24.144C253.418 25.712 253.866 26.96 254.762 27.888C255.69 28.784 256.842 29.232 258.218 29.232C259.85 29.232 261.338 28.64 262.682 27.456C264.026 26.272 264.89 24.656 265.274 22.608Z" fill="#6EC6FF"/>
</svg>
